<mxfile host="Electron" modified="2024-06-05T17:52:19.547Z" agent="Mozilla/5.0 (Windows NT 10.0; Win64; x64) AppleWebKit/537.36 (KHTML, like Gecko) draw.io/24.2.5 Chrome/120.0.6099.109 Electron/28.1.0 Safari/537.36" etag="eiKhF5cVKGvbbod_YnZX" version="24.2.5" type="device">
  <diagram name="Página-1" id="9sRrH5bSTGNTWoGgger0">
    <mxGraphModel dx="1036" dy="606" grid="1" gridSize="10" guides="1" tooltips="1" connect="1" arrows="1" fold="1" page="1" pageScale="1" pageWidth="827" pageHeight="1169" math="0" shadow="0">
      <root>
        <mxCell id="0" />
        <mxCell id="1" parent="0" />
        <mxCell id="ZNnYSZDbvfm6u7jZ9py5-1" value="Nueva Ficha" style="rounded=1;whiteSpace=wrap;html=1;fontSize=12;glass=0;strokeWidth=1;shadow=0;" vertex="1" parent="1">
          <mxGeometry x="20" y="94" width="120" height="40" as="geometry" />
        </mxCell>
        <mxCell id="ZNnYSZDbvfm6u7jZ9py5-2" value="¿Cliente existente?" style="rhombus;whiteSpace=wrap;html=1;shadow=0;fontFamily=Helvetica;fontSize=12;align=center;strokeWidth=1;spacing=6;spacingTop=-4;" vertex="1" parent="1">
          <mxGeometry x="180" y="74" width="100" height="80" as="geometry" />
        </mxCell>
        <mxCell id="ZNnYSZDbvfm6u7jZ9py5-3" value="Busqueda cliente" style="rounded=1;whiteSpace=wrap;html=1;fontSize=12;glass=0;strokeWidth=1;shadow=0;" vertex="1" parent="1">
          <mxGeometry x="320" y="94" width="120" height="40" as="geometry" />
        </mxCell>
        <mxCell id="ZNnYSZDbvfm6u7jZ9py5-5" value="Selección cliente" style="rounded=1;whiteSpace=wrap;html=1;fontSize=12;glass=0;strokeWidth=1;shadow=0;" vertex="1" parent="1">
          <mxGeometry x="500" y="94" width="120" height="40" as="geometry" />
        </mxCell>
        <mxCell id="ZNnYSZDbvfm6u7jZ9py5-6" value="Alta nuevo cliente" style="rounded=1;whiteSpace=wrap;html=1;fontSize=12;glass=0;strokeWidth=1;shadow=0;" vertex="1" parent="1">
          <mxGeometry x="170" y="220" width="120" height="40" as="geometry" />
        </mxCell>
        <mxCell id="ZNnYSZDbvfm6u7jZ9py5-7" value="Nueva ficha para el cliente" style="rounded=1;whiteSpace=wrap;html=1;fontSize=12;glass=0;strokeWidth=1;shadow=0;" vertex="1" parent="1">
          <mxGeometry x="414" y="220" width="120" height="40" as="geometry" />
        </mxCell>
        <mxCell id="ZNnYSZDbvfm6u7jZ9py5-8" value="" style="endArrow=classic;html=1;rounded=0;exitX=1;exitY=0.5;exitDx=0;exitDy=0;entryX=0;entryY=0.5;entryDx=0;entryDy=0;" edge="1" parent="1" source="ZNnYSZDbvfm6u7jZ9py5-1" target="ZNnYSZDbvfm6u7jZ9py5-2">
          <mxGeometry width="50" height="50" relative="1" as="geometry">
            <mxPoint x="390" y="340" as="sourcePoint" />
            <mxPoint x="440" y="290" as="targetPoint" />
          </mxGeometry>
        </mxCell>
        <mxCell id="ZNnYSZDbvfm6u7jZ9py5-9" value="" style="endArrow=classic;html=1;rounded=0;entryX=0;entryY=0.5;entryDx=0;entryDy=0;" edge="1" parent="1" target="ZNnYSZDbvfm6u7jZ9py5-3">
          <mxGeometry width="50" height="50" relative="1" as="geometry">
            <mxPoint x="280" y="114" as="sourcePoint" />
            <mxPoint x="190" y="124" as="targetPoint" />
          </mxGeometry>
        </mxCell>
        <mxCell id="ZNnYSZDbvfm6u7jZ9py5-10" value="Yes" style="text;html=1;align=center;verticalAlign=middle;whiteSpace=wrap;rounded=0;" vertex="1" parent="1">
          <mxGeometry x="230" y="80" width="120" height="30" as="geometry" />
        </mxCell>
        <mxCell id="ZNnYSZDbvfm6u7jZ9py5-11" value="No" style="text;html=1;align=center;verticalAlign=middle;whiteSpace=wrap;rounded=0;" vertex="1" parent="1">
          <mxGeometry x="150" y="154" width="70" height="30" as="geometry" />
        </mxCell>
        <mxCell id="ZNnYSZDbvfm6u7jZ9py5-12" value="" style="endArrow=classic;html=1;rounded=0;exitX=0.5;exitY=1;exitDx=0;exitDy=0;entryX=0.5;entryY=0;entryDx=0;entryDy=0;" edge="1" parent="1" source="ZNnYSZDbvfm6u7jZ9py5-2" target="ZNnYSZDbvfm6u7jZ9py5-6">
          <mxGeometry width="50" height="50" relative="1" as="geometry">
            <mxPoint x="390" y="340" as="sourcePoint" />
            <mxPoint x="440" y="290" as="targetPoint" />
          </mxGeometry>
        </mxCell>
        <mxCell id="ZNnYSZDbvfm6u7jZ9py5-13" value="" style="endArrow=classic;html=1;rounded=0;exitX=1;exitY=0.5;exitDx=0;exitDy=0;entryX=0;entryY=0.5;entryDx=0;entryDy=0;" edge="1" parent="1" source="ZNnYSZDbvfm6u7jZ9py5-6" target="ZNnYSZDbvfm6u7jZ9py5-7">
          <mxGeometry width="50" height="50" relative="1" as="geometry">
            <mxPoint x="390" y="340" as="sourcePoint" />
            <mxPoint x="440" y="290" as="targetPoint" />
          </mxGeometry>
        </mxCell>
        <mxCell id="ZNnYSZDbvfm6u7jZ9py5-14" value="" style="endArrow=classic;html=1;rounded=0;exitX=1;exitY=0.5;exitDx=0;exitDy=0;entryX=0;entryY=0.5;entryDx=0;entryDy=0;" edge="1" parent="1" source="ZNnYSZDbvfm6u7jZ9py5-3" target="ZNnYSZDbvfm6u7jZ9py5-5">
          <mxGeometry width="50" height="50" relative="1" as="geometry">
            <mxPoint x="390" y="340" as="sourcePoint" />
            <mxPoint x="440" y="290" as="targetPoint" />
          </mxGeometry>
        </mxCell>
        <mxCell id="ZNnYSZDbvfm6u7jZ9py5-15" value="" style="endArrow=classic;html=1;rounded=0;exitX=0.5;exitY=1;exitDx=0;exitDy=0;entryX=0.5;entryY=0;entryDx=0;entryDy=0;" edge="1" parent="1" source="ZNnYSZDbvfm6u7jZ9py5-5" target="ZNnYSZDbvfm6u7jZ9py5-7">
          <mxGeometry width="50" height="50" relative="1" as="geometry">
            <mxPoint x="390" y="340" as="sourcePoint" />
            <mxPoint x="440" y="290" as="targetPoint" />
          </mxGeometry>
        </mxCell>
      </root>
    </mxGraphModel>
  </diagram>
</mxfile>
